<?xml version="1.0" encoding="UTF-8"?>
<svg xmlns="http://www.w3.org/2000/svg" xmlns:xlink="http://www.w3.org/1999/xlink" width="110pt" height="37pt" viewBox="0 0 110 37" version="1.1">
<g id="surface1">
<path style=" stroke:none;fill-rule:nonzero;fill:rgb(100%,100%,100%);fill-opacity:1;" d="M 30.140625 0.226562 C 25.640625 1.394531 24.882812 7.628906 29.003906 9.65625 C 29.992188 10.136719 30.621094 10.265625 32.367188 10.265625 C 34.945312 10.238281 36.261719 9.679688 37.425781 8.058594 C 38.109375 7.148438 38.183594 6.816406 38.183594 5.195312 C 38.183594 3.574219 38.109375 3.242188 37.425781 2.332031 C 36.386719 0.886719 34.945312 0.203125 32.746094 0.101562 C 31.785156 0.0507812 30.597656 0.125 30.140625 0.226562 Z M 33.910156 0.785156 C 35.78125 1.417969 36.667969 2.8125 36.667969 5.070312 C 36.667969 6.816406 36.261719 7.984375 35.378906 8.769531 C 33.328125 10.59375 29.585938 10.035156 28.449219 7.730469 C 27.738281 6.335938 27.765625 3.75 28.449219 2.535156 C 29.410156 0.886719 31.863281 0.101562 33.910156 0.785156 Z M 33.910156 0.785156 "/>
<path style=" stroke:none;fill-rule:nonzero;fill:rgb(100%,100%,100%);fill-opacity:1;" d="M 45.136719 1.191406 C 44.859375 3.320312 43.976562 8.972656 43.824219 9.578125 C 43.695312 10.085938 43.773438 10.164062 44.277344 10.085938 C 44.785156 10.035156 44.886719 9.859375 44.9375 8.996094 C 45.0625 6.96875 45.566406 3.042969 45.746094 3.042969 C 45.820312 3.042969 46.628906 4.382812 47.515625 6.03125 C 48.425781 7.652344 49.335938 9.273438 49.539062 9.578125 L 49.890625 10.1875 L 50.269531 9.453125 C 51.382812 7.222656 53.9375 3.066406 54.113281 3.167969 C 54.214844 3.242188 54.46875 4.839844 54.644531 6.714844 L 54.976562 10.136719 L 55.683594 10.136719 C 56.492188 10.136719 56.566406 9.808594 56.164062 7.679688 C 56.011719 6.996094 55.785156 5.195312 55.632812 3.675781 C 55.457031 2.152344 55.253906 0.683594 55.152344 0.40625 C 54.925781 -0.152344 55.152344 -0.480469 52.117188 4.738281 C 51.105469 6.460938 50.269531 7.855469 50.21875 7.855469 C 50.09375 7.855469 46.378906 1.546875 45.996094 0.683594 C 45.542969 -0.304688 45.316406 -0.175781 45.136719 1.191406 Z M 45.136719 1.191406 "/>
<path style=" stroke:none;fill-rule:nonzero;fill:rgb(100%,100%,100%);fill-opacity:1;" d="M 87.089844 0.253906 C 86.179688 0.457031 84.761719 1.394531 84.207031 2.128906 C 82.640625 4.230469 82.941406 7.148438 84.890625 8.871094 C 87.746094 11.378906 93.109375 10.644531 94.75 7.527344 C 95.003906 7.019531 95.15625 6.109375 95.15625 5.195312 C 95.15625 3.394531 94.699219 2.382812 93.410156 1.316406 C 91.996094 0.125 89.367188 -0.304688 87.089844 0.253906 Z M 91.917969 1.292969 C 93.109375 2.101562 93.5625 3.242188 93.5625 5.296875 C 93.5625 7.171875 93.082031 8.210938 91.792969 9.175781 C 90.957031 9.78125 88.835938 10.035156 87.671875 9.65625 C 85.546875 8.945312 84.382812 6.488281 84.964844 3.953125 C 85.320312 2.332031 85.800781 1.648438 87.0625 1.015625 C 88.457031 0.304688 90.65625 0.429688 91.917969 1.292969 Z M 91.917969 1.292969 "/>
<path style=" stroke:none;fill-rule:nonzero;fill:rgb(100%,100%,100%);fill-opacity:1;" d="M 0.378906 5.195312 L 0.378906 10.136719 L 1.769531 10.136719 L 1.769531 5.574219 L 3.289062 5.574219 C 4.980469 5.574219 6.625 4.917969 7.082031 4.082031 C 7.382812 3.496094 7.410156 1.773438 7.132812 1.367188 C 6.523438 0.480469 5.691406 0.253906 3.035156 0.253906 L 0.378906 0.253906 Z M 5.234375 1.140625 C 5.917969 1.621094 6.121094 2.710938 5.691406 3.75 C 5.285156 4.6875 4.5 5.070312 2.882812 5.070312 L 1.769531 5.070312 L 1.769531 0.761719 L 3.238281 0.761719 C 4.097656 0.761719 4.90625 0.914062 5.234375 1.140625 Z M 5.234375 1.140625 "/>
<path style=" stroke:none;fill-rule:nonzero;fill:rgb(100%,100%,100%);fill-opacity:1;" d="M 13.277344 5.195312 L 13.277344 10.136719 L 14.667969 10.136719 L 14.667969 7.730469 C 14.667969 5.804688 14.742188 5.320312 15.019531 5.320312 C 15.375 5.320312 18.359375 8.539062 19.042969 9.65625 C 19.242188 9.984375 19.621094 10.136719 20.304688 10.136719 L 21.265625 10.136719 L 19.242188 7.832031 C 18.105469 6.5625 17.195312 5.421875 17.195312 5.320312 C 17.195312 5.21875 17.550781 5.070312 17.980469 4.96875 C 19.117188 4.738281 20.230469 3.523438 20.230469 2.484375 C 20.230469 1.519531 20.078125 1.265625 19.21875 0.683594 C 18.738281 0.355469 18.03125 0.253906 15.929688 0.253906 L 13.277344 0.253906 Z M 17.652344 0.914062 C 17.953125 1.015625 18.410156 1.417969 18.613281 1.824219 C 19.421875 3.394531 18.082031 4.816406 15.804688 4.816406 L 14.667969 4.816406 L 14.667969 2.964844 C 14.667969 1.925781 14.742188 1.015625 14.84375 0.9375 C 15.046875 0.710938 16.867188 0.710938 17.652344 0.914062 Z M 17.652344 0.914062 "/>
<path style=" stroke:none;fill-rule:nonzero;fill:rgb(100%,100%,100%);fill-opacity:1;" d="M 62.710938 5.195312 L 62.710938 10.136719 L 64.128906 10.136719 L 64.128906 0.253906 L 62.710938 0.253906 Z M 62.710938 5.195312 "/>
<path style=" stroke:none;fill-rule:nonzero;fill:rgb(100%,100%,100%);fill-opacity:1;" d="M 70.046875 0.632812 C 70.046875 0.9375 70.398438 1.015625 71.691406 1.015625 L 73.332031 1.015625 L 73.332031 10.136719 L 74.851562 10.136719 L 74.851562 1.015625 L 76.496094 1.015625 C 77.785156 1.015625 78.136719 0.9375 78.136719 0.632812 C 78.136719 0.304688 77.53125 0.253906 74.09375 0.253906 C 70.652344 0.253906 70.046875 0.304688 70.046875 0.632812 Z M 70.046875 0.632812 "/>
<path style=" stroke:none;fill-rule:nonzero;fill:rgb(100%,100%,100%);fill-opacity:1;" d="M 101.402344 5.195312 L 101.402344 10.136719 L 102.996094 10.136719 L 102.820312 7.882812 C 102.691406 6.257812 102.742188 5.574219 102.945312 5.421875 C 103.25 5.246094 104.941406 6.894531 106.710938 9.074219 C 107.472656 10.035156 107.699219 10.164062 108.40625 10.085938 L 109.214844 10.011719 L 107.242188 7.730469 C 106.132812 6.460938 105.296875 5.371094 105.347656 5.269531 C 105.398438 5.195312 105.777344 5.042969 106.179688 4.941406 C 107.015625 4.765625 108.152344 3.648438 108.253906 2.914062 C 108.40625 1.953125 107.976562 1.039062 107.21875 0.632812 C 106.710938 0.378906 105.726562 0.253906 103.929688 0.253906 L 101.402344 0.253906 Z M 106.332031 1.394531 C 107.34375 2.40625 107.066406 3.726562 105.699219 4.433594 C 104.890625 4.867188 103.019531 4.941406 102.792969 4.585938 C 102.71875 4.460938 102.742188 3.546875 102.820312 2.558594 L 102.996094 0.761719 L 104.359375 0.761719 C 105.472656 0.761719 105.828125 0.886719 106.332031 1.394531 Z M 106.332031 1.394531 "/>
<path style=" stroke:none;fill-rule:nonzero;fill:rgb(100%,100%,100%);fill-opacity:1;" d="M 1.0625 13.582031 C 1.515625 14.21875 2.351562 15.027344 2.90625 15.359375 C 3.84375 15.890625 4.476562 16.167969 7.332031 17.285156 C 8.21875 17.613281 8.191406 17.613281 6.070312 17.738281 L 3.917969 17.867188 L 5.183594 18.625 C 6.371094 19.335938 6.601562 19.386719 9.027344 19.386719 L 11.582031 19.386719 L 10.796875 20.070312 C 10.34375 20.425781 10.0625 20.804688 10.140625 20.882812 C 10.367188 21.109375 20.332031 24.53125 22.734375 25.191406 C 25.820312 26.050781 29.28125 26.734375 34.390625 27.472656 C 41.546875 28.484375 44.480469 28.863281 46.984375 29.042969 C 48.25 29.144531 49.308594 29.296875 49.308594 29.398438 C 49.308594 29.5 47.996094 30.792969 46.402344 32.3125 C 44.785156 33.808594 43.519531 35.074219 43.59375 35.148438 C 43.644531 35.199219 44.984375 34.71875 46.554688 34.085938 C 51.433594 32.082031 51.710938 32.058594 51.105469 33.527344 C 50.371094 35.300781 50.421875 35.582031 51.710938 36.214844 C 52.800781 36.746094 52.902344 36.773438 53.484375 36.390625 C 54.316406 35.835938 54.292969 35.503906 53.433594 35.554688 C 52.953125 35.582031 52.722656 35.480469 52.648438 35.175781 C 52.574219 34.769531 52.800781 34.71875 54.875 34.71875 C 56.945312 34.71875 57.175781 34.769531 57.097656 35.148438 C 57.046875 35.453125 56.769531 35.605469 56.316406 35.605469 C 55.503906 35.582031 55.457031 35.757812 56.113281 36.339844 C 56.695312 36.875 57.503906 36.695312 58.539062 35.886719 L 59.273438 35.300781 L 58.71875 33.984375 C 58.261719 32.894531 58.238281 32.640625 58.539062 32.539062 C 58.742188 32.464844 60.511719 33.046875 62.460938 33.832031 C 64.433594 34.617188 66.101562 35.199219 66.152344 35.148438 C 66.226562 35.097656 64.964844 33.808594 63.34375 32.3125 C 61.75 30.816406 60.4375 29.5 60.4375 29.398438 C 60.4375 29.296875 61.5 29.144531 62.789062 29.042969 C 65.847656 28.8125 75.003906 27.597656 80.289062 26.710938 C 83.121094 26.230469 87.644531 25.089844 90.65625 24.101562 C 94.777344 22.730469 99.734375 21.007812 99.886719 20.882812 C 99.960938 20.804688 99.605469 20.425781 99.125 20.019531 L 98.265625 19.3125 L 100.441406 19.4375 C 102.539062 19.589844 102.691406 19.539062 104.359375 18.726562 L 106.082031 17.867188 L 103.804688 17.738281 L 101.527344 17.613281 L 103.828125 16.777344 C 105.121094 16.320312 106.660156 15.609375 107.242188 15.207031 C 108.355469 14.46875 109.695312 12.796875 109.417969 12.519531 C 109.34375 12.441406 108.054688 12.824219 106.535156 13.40625 C 99.9375 15.890625 96.902344 16.625 90.277344 17.257812 C 84.6875 17.816406 79.65625 17.941406 70.046875 17.765625 C 63.902344 17.636719 62.003906 17.917969 59.90625 19.261719 C 59.273438 19.691406 58.691406 20.019531 58.617188 20.019531 C 58.539062 20.019531 58.1875 19.589844 57.832031 19.03125 C 57.425781 18.449219 56.71875 17.839844 56.011719 17.484375 L 54.824219 16.902344 L 53.710938 17.4375 C 53.078125 17.765625 52.292969 18.425781 51.890625 18.980469 C 51.511719 19.539062 51.132812 19.996094 51.003906 20.019531 C 50.902344 20.019531 50.371094 19.691406 49.789062 19.285156 C 47.96875 17.96875 45.921875 17.636719 39.699219 17.765625 C 30.140625 17.941406 25.3125 17.816406 19.722656 17.285156 C 13.425781 16.648438 10.292969 15.941406 4.601562 13.835938 C 2.527344 13.050781 0.683594 12.417969 0.53125 12.417969 C 0.355469 12.417969 0.605469 12.949219 1.0625 13.582031 Z M 1.0625 13.582031 "/>
</g>
</svg>
